<?xml version="1.0" encoding="utf-8"?>
<!-- Generator: Adobe Illustrator 15.1.0, SVG Export Plug-In . SVG Version: 6.00 Build 0)  -->
<!DOCTYPE svg PUBLIC "-//W3C//DTD SVG 1.1//EN" "http://www.w3.org/Graphics/SVG/1.1/DTD/svg11.dtd">
<svg version="1.1" id="Calque_1" xmlns="http://www.w3.org/2000/svg" xmlns:xlink="http://www.w3.org/1999/xlink" x="0px" y="0px"
	 width="503.197px" height="114.839px" viewBox="54.313 338.936 503.197 114.839"
	 enable-background="new 54.313 338.936 503.197 114.839" xml:space="preserve">
<g>
	<rect y="302.549" fill="none" width="612" height="186.902"/>
	<g>
		<g>
			<g>
				<path fill="#D7001E" d="M254.882,381.357c0,0,0,3.727,0,5.502c0.532-1.065,3.905-6.745,10.827-6.745h2.13v9.407h-2.13
					c-6.212,0-9.762,4.615-9.762,10.295v21.121h-11.182v-39.581H254.882z"/>
			</g>
			<g>
				<path fill="#D7001E" d="M370.607,400.703c0-6.034-4.97-10.827-11.182-10.827c-6.035,0-11.005,4.615-11.005,10.472
					c-0.178,6.034,4.615,11.183,11.005,11.183h11.182V400.703z M371.495,386.149v-4.792h10.117v53.781h-11.182v-14.022h-11.537
					c-11.715,0-20.944-9.229-20.944-20.589c0-11.715,9.584-20.589,20.234-20.589C367.058,379.937,371.495,386.149,371.495,386.149z"
					/>
			</g>
			<g>
				<path fill="#D7001E" d="M233.583,381.357v39.758H222.4v-39.758H233.583z M233.583,366.625v9.585H222.4v-9.585H233.583z"/>
			</g>
			<g>
				<path fill="#D7001E" d="M191.694,376.209c-7.1,0-12.957,5.502-12.957,12.247v5.68h20.057v-17.927H191.694z M198.971,421.115
					v-18.104h-20.057v17.926h-11.359v-31.594c0-12.602,10.827-22.719,24.139-22.719h18.459v54.313h-11.182V421.115z"/>
			</g>
			<g>
				<path fill="#D7001E" d="M330.14,366.625v9.585h-11.183v-9.585H330.14z M330.14,381.357v39.758h-11.183v-39.758H330.14z"/>
			</g>
			<g>
				<path fill="#D7001E" d="M453.675,366.625v9.585h-11.182v-9.585H453.675z M453.675,381.357v39.758h-11.182v-39.758H453.675z"/>
			</g>
			<g>
				<path fill="#D7001E" d="M391.552,381.357h11.183v22.186c0,6.035,4.438,9.23,8.875,9.23c4.26,0,9.052-2.84,9.052-9.23v-22.186
					h11.183v39.758h-10.295v-4.792l-0.178,0.177c-3.194,3.729-7.81,5.857-13.135,5.857c-8.52,0-16.684-7.1-16.684-17.217
					L391.552,381.357z"/>
			</g>
			<g>
				<polygon fill="#D7001E" points="296.948,366.625 296.948,411.531 311.502,411.531 311.502,421.115 285.766,421.115
					285.766,366.625 				"/>
			</g>
			<g>
				<path fill="#D7001E" d="M494.144,401.769c0,6.034-4.97,10.827-11.182,10.827c-6.035,0-10.827-4.615-11.005-10.473
					c-0.178-6.034,4.615-11.182,11.005-11.182h11.182V401.769z M495.209,416.146v4.792h10.117v-54.313h-11.183v14.555h-11.537
					c-11.714,0-20.944,9.23-20.944,20.589c0,11.715,9.585,20.589,20.234,20.589C490.594,422.357,495.209,416.146,495.209,416.146z"
					/>
			</g>
			<g>
				<path fill="#D7001E" d="M523.963,397.509h22.719c-1.597-4.97-5.324-8.342-11.004-8.342S525.738,392.716,523.963,397.509z
					 M535.855,422.357c-12.425,0-22.542-9.406-22.542-21.121s10.117-21.122,22.542-21.122c12.424,0,21.654,9.407,21.654,21.122
					c0,1.064,0,2.307-0.178,3.55h-33.369c1.598,4.97,6.035,8.52,11.715,8.52c5.324,0,8.52-1.598,11.182-4.792l7.987,5.146
					C550.587,418.985,544.02,422.357,535.855,422.357z"/>
			</g>
			<g>
				<path fill="#375F9B" d="M102.414,338.936H54.313v48.101c0,26.624,21.477,48.101,48.101,48.101s48.101-21.478,48.101-48.101
					C150.515,360.59,129.038,338.936,102.414,338.936z M136.493,421.115h-34.079c-18.814,0-34.079-15.264-34.079-34.079
					c0-18.814,15.264-34.079,34.079-34.079s34.079,15.265,34.079,34.079V421.115z M102.414,366.625
					c11.182,0,20.412,9.052,20.412,20.412v20.235h-20.412c-11.182,0-20.412-9.053-20.412-20.413
					C82.002,375.854,91.232,366.625,102.414,366.625z"/>
			</g>
		</g>
	</g>
</g>
</svg>
